<svg class="rich-terminal" viewBox="0 0 1482 1026.0" xmlns="http://www.w3.org/2000/svg">
    <!-- Generated with Rich https://www.textualize.io -->
    <style>

    @font-face {
        font-family: "Fira Code";
        src: local("FiraCode-Regular"),
                url("https://cdnjs.cloudflare.com/ajax/libs/firacode/6.2.0/woff2/FiraCode-Regular.woff2") format("woff2"),
                url("https://cdnjs.cloudflare.com/ajax/libs/firacode/6.2.0/woff/FiraCode-Regular.woff") format("woff");
        font-style: normal;
        font-weight: 400;
    }
    @font-face {
        font-family: "Fira Code";
        src: local("FiraCode-Bold"),
                url("https://cdnjs.cloudflare.com/ajax/libs/firacode/6.2.0/woff2/FiraCode-Bold.woff2") format("woff2"),
                url("https://cdnjs.cloudflare.com/ajax/libs/firacode/6.2.0/woff/FiraCode-Bold.woff") format("woff");
        font-style: bold;
        font-weight: 700;
    }

    .terminal-607156690-matrix {
        font-family: Fira Code, monospace;
        font-size: 20px;
        line-height: 24.4px;
        font-variant-east-asian: full-width;
    }

    .terminal-607156690-title {
        font-size: 18px;
        font-weight: bold;
        font-family: arial;
    }

    .terminal-607156690-r1 { fill: #c5c8c6 }
.terminal-607156690-r2 { fill: #e0e0e0 }
.terminal-607156690-r3 { fill: #c6c6c6 }
.terminal-607156690-r4 { fill: #797979 }
.terminal-607156690-r5 { fill: #eaeaea;font-weight: bold }
.terminal-607156690-r6 { fill: #4f4f4f }
.terminal-607156690-r7 { fill: #656565 }
.terminal-607156690-r8 { fill: #e0e0e0;font-weight: bold }
.terminal-607156690-r9 { fill: #b0b0b0;font-weight: bold }
.terminal-607156690-r10 { fill: #515151 }
    </style>

    <defs>
    <clipPath id="terminal-607156690-clip-terminal">
      <rect x="0" y="0" width="1463.0" height="975.0" />
    </clipPath>
    <clipPath id="terminal-607156690-line-0">
    <rect x="0" y="1.5" width="1464" height="24.65"/>
            </clipPath>
<clipPath id="terminal-607156690-line-1">
    <rect x="0" y="25.9" width="1464" height="24.65"/>
            </clipPath>
<clipPath id="terminal-607156690-line-2">
    <rect x="0" y="50.3" width="1464" height="24.65"/>
            </clipPath>
<clipPath id="terminal-607156690-line-3">
    <rect x="0" y="74.7" width="1464" height="24.65"/>
            </clipPath>
<clipPath id="terminal-607156690-line-4">
    <rect x="0" y="99.1" width="1464" height="24.65"/>
            </clipPath>
<clipPath id="terminal-607156690-line-5">
    <rect x="0" y="123.5" width="1464" height="24.65"/>
            </clipPath>
<clipPath id="terminal-607156690-line-6">
    <rect x="0" y="147.9" width="1464" height="24.65"/>
            </clipPath>
<clipPath id="terminal-607156690-line-7">
    <rect x="0" y="172.3" width="1464" height="24.65"/>
            </clipPath>
<clipPath id="terminal-607156690-line-8">
    <rect x="0" y="196.7" width="1464" height="24.65"/>
            </clipPath>
<clipPath id="terminal-607156690-line-9">
    <rect x="0" y="221.1" width="1464" height="24.65"/>
            </clipPath>
<clipPath id="terminal-607156690-line-10">
    <rect x="0" y="245.5" width="1464" height="24.65"/>
            </clipPath>
<clipPath id="terminal-607156690-line-11">
    <rect x="0" y="269.9" width="1464" height="24.65"/>
            </clipPath>
<clipPath id="terminal-607156690-line-12">
    <rect x="0" y="294.3" width="1464" height="24.65"/>
            </clipPath>
<clipPath id="terminal-607156690-line-13">
    <rect x="0" y="318.7" width="1464" height="24.65"/>
            </clipPath>
<clipPath id="terminal-607156690-line-14">
    <rect x="0" y="343.1" width="1464" height="24.65"/>
            </clipPath>
<clipPath id="terminal-607156690-line-15">
    <rect x="0" y="367.5" width="1464" height="24.65"/>
            </clipPath>
<clipPath id="terminal-607156690-line-16">
    <rect x="0" y="391.9" width="1464" height="24.65"/>
            </clipPath>
<clipPath id="terminal-607156690-line-17">
    <rect x="0" y="416.3" width="1464" height="24.65"/>
            </clipPath>
<clipPath id="terminal-607156690-line-18">
    <rect x="0" y="440.7" width="1464" height="24.65"/>
            </clipPath>
<clipPath id="terminal-607156690-line-19">
    <rect x="0" y="465.1" width="1464" height="24.65"/>
            </clipPath>
<clipPath id="terminal-607156690-line-20">
    <rect x="0" y="489.5" width="1464" height="24.65"/>
            </clipPath>
<clipPath id="terminal-607156690-line-21">
    <rect x="0" y="513.9" width="1464" height="24.65"/>
            </clipPath>
<clipPath id="terminal-607156690-line-22">
    <rect x="0" y="538.3" width="1464" height="24.65"/>
            </clipPath>
<clipPath id="terminal-607156690-line-23">
    <rect x="0" y="562.7" width="1464" height="24.65"/>
            </clipPath>
<clipPath id="terminal-607156690-line-24">
    <rect x="0" y="587.1" width="1464" height="24.65"/>
            </clipPath>
<clipPath id="terminal-607156690-line-25">
    <rect x="0" y="611.5" width="1464" height="24.65"/>
            </clipPath>
<clipPath id="terminal-607156690-line-26">
    <rect x="0" y="635.9" width="1464" height="24.65"/>
            </clipPath>
<clipPath id="terminal-607156690-line-27">
    <rect x="0" y="660.3" width="1464" height="24.65"/>
            </clipPath>
<clipPath id="terminal-607156690-line-28">
    <rect x="0" y="684.7" width="1464" height="24.65"/>
            </clipPath>
<clipPath id="terminal-607156690-line-29">
    <rect x="0" y="709.1" width="1464" height="24.65"/>
            </clipPath>
<clipPath id="terminal-607156690-line-30">
    <rect x="0" y="733.5" width="1464" height="24.65"/>
            </clipPath>
<clipPath id="terminal-607156690-line-31">
    <rect x="0" y="757.9" width="1464" height="24.65"/>
            </clipPath>
<clipPath id="terminal-607156690-line-32">
    <rect x="0" y="782.3" width="1464" height="24.65"/>
            </clipPath>
<clipPath id="terminal-607156690-line-33">
    <rect x="0" y="806.7" width="1464" height="24.65"/>
            </clipPath>
<clipPath id="terminal-607156690-line-34">
    <rect x="0" y="831.1" width="1464" height="24.65"/>
            </clipPath>
<clipPath id="terminal-607156690-line-35">
    <rect x="0" y="855.5" width="1464" height="24.65"/>
            </clipPath>
<clipPath id="terminal-607156690-line-36">
    <rect x="0" y="879.9" width="1464" height="24.65"/>
            </clipPath>
<clipPath id="terminal-607156690-line-37">
    <rect x="0" y="904.3" width="1464" height="24.65"/>
            </clipPath>
<clipPath id="terminal-607156690-line-38">
    <rect x="0" y="928.7" width="1464" height="24.65"/>
            </clipPath>
    </defs>

    <rect fill="#292929" stroke="rgba(255,255,255,0.35)" stroke-width="1" x="1" y="1" width="1480" height="1024" rx="8"/><text class="terminal-607156690-title" fill="#c5c8c6" text-anchor="middle" x="740" y="27">ProxyTUI</text>
            <g transform="translate(26,22)">
            <circle cx="0" cy="0" r="7" fill="#ff5f57"/>
            <circle cx="22" cy="0" r="7" fill="#febc2e"/>
            <circle cx="44" cy="0" r="7" fill="#28c840"/>
            </g>
        
    <g transform="translate(9, 41)" clip-path="url(#terminal-607156690-clip-terminal)">
    <rect fill="#2d2d2d" x="0" y="1.5" width="12.2" height="24.65" shape-rendering="crispEdges"/><rect fill="#2d2d2d" x="12.2" y="1.5" width="12.2" height="24.65" shape-rendering="crispEdges"/><rect fill="#2d2d2d" x="24.4" y="1.5" width="61" height="24.65" shape-rendering="crispEdges"/><rect fill="#2d2d2d" x="85.4" y="1.5" width="12.2" height="24.65" shape-rendering="crispEdges"/><rect fill="#2d2d2d" x="97.6" y="1.5" width="573.4" height="24.65" shape-rendering="crispEdges"/><rect fill="#2d2d2d" x="671" y="1.5" width="97.6" height="24.65" shape-rendering="crispEdges"/><rect fill="#2d2d2d" x="768.6" y="1.5" width="573.4" height="24.65" shape-rendering="crispEdges"/><rect fill="#353535" x="1342" y="1.5" width="12.2" height="24.65" shape-rendering="crispEdges"/><rect fill="#353535" x="1354.2" y="1.5" width="97.6" height="24.65" shape-rendering="crispEdges"/><rect fill="#353535" x="1451.8" y="1.5" width="12.2" height="24.65" shape-rendering="crispEdges"/><rect fill="#121212" x="0" y="25.9" width="12.2" height="24.65" shape-rendering="crispEdges"/><rect fill="#121212" x="12.2" y="25.9" width="97.6" height="24.65" shape-rendering="crispEdges"/><rect fill="#121212" x="109.8" y="25.9" width="12.2" height="24.65" shape-rendering="crispEdges"/><rect fill="#121212" x="122" y="25.9" width="12.2" height="24.65" shape-rendering="crispEdges"/><rect fill="#121212" x="134.2" y="25.9" width="85.4" height="24.65" shape-rendering="crispEdges"/><rect fill="#121212" x="219.6" y="25.9" width="12.2" height="24.65" shape-rendering="crispEdges"/><rect fill="#121212" x="231.8" y="25.9" width="12.2" height="24.65" shape-rendering="crispEdges"/><rect fill="#121212" x="244" y="25.9" width="48.8" height="24.65" shape-rendering="crispEdges"/><rect fill="#121212" x="292.8" y="25.9" width="12.2" height="24.65" shape-rendering="crispEdges"/><rect fill="#656565" x="305" y="25.9" width="12.2" height="24.65" shape-rendering="crispEdges"/><rect fill="#656565" x="317.2" y="25.9" width="73.2" height="24.65" shape-rendering="crispEdges"/><rect fill="#656565" x="390.4" y="25.9" width="12.2" height="24.65" shape-rendering="crispEdges"/><rect fill="#121212" x="402.6" y="25.9" width="12.2" height="24.65" shape-rendering="crispEdges"/><rect fill="#121212" x="414.8" y="25.9" width="73.2" height="24.65" shape-rendering="crispEdges"/><rect fill="#121212" x="488" y="25.9" width="12.2" height="24.65" shape-rendering="crispEdges"/><rect fill="#121212" x="500.2" y="25.9" width="963.8" height="24.65" shape-rendering="crispEdges"/><rect fill="#121212" x="0" y="50.3" width="122" height="24.65" shape-rendering="crispEdges"/><rect fill="#121212" x="122" y="50.3" width="73.2" height="24.65" shape-rendering="crispEdges"/><rect fill="#121212" x="195.2" y="50.3" width="12.2" height="24.65" shape-rendering="crispEdges"/><rect fill="#121212" x="207.4" y="50.3" width="1256.6" height="24.65" shape-rendering="crispEdges"/><rect fill="#2d2d2d" x="0" y="74.7" width="85.4" height="24.65" shape-rendering="crispEdges"/><rect fill="#2d2d2d" x="85.4" y="74.7" width="231.8" height="24.65" shape-rendering="crispEdges"/><rect fill="#2d2d2d" x="317.2" y="74.7" width="97.6" height="24.65" shape-rendering="crispEdges"/><rect fill="#2d2d2d" x="414.8" y="74.7" width="73.2" height="24.65" shape-rendering="crispEdges"/><rect fill="#2d2d2d" x="488" y="74.7" width="158.6" height="24.65" shape-rendering="crispEdges"/><rect fill="#292929" x="646.6" y="74.7" width="817.4" height="24.65" shape-rendering="crispEdges"/><rect fill="#333333" x="0" y="99.1" width="85.4" height="24.65" shape-rendering="crispEdges"/><rect fill="#171717" x="85.4" y="99.1" width="231.8" height="24.65" shape-rendering="crispEdges"/><rect fill="#171717" x="317.2" y="99.1" width="97.6" height="24.65" shape-rendering="crispEdges"/><rect fill="#171717" x="414.8" y="99.1" width="73.2" height="24.65" shape-rendering="crispEdges"/><rect fill="#171717" x="488" y="99.1" width="158.6" height="24.65" shape-rendering="crispEdges"/><rect fill="#181818" x="646.6" y="99.1" width="817.4" height="24.65" shape-rendering="crispEdges"/><rect fill="#1e1e1e" x="0" y="123.5" width="1464" height="24.65" shape-rendering="crispEdges"/><rect fill="#1e1e1e" x="0" y="147.9" width="1464" height="24.65" shape-rendering="crispEdges"/><rect fill="#1e1e1e" x="0" y="172.3" width="1464" height="24.65" shape-rendering="crispEdges"/><rect fill="#1e1e1e" x="0" y="196.7" width="1464" height="24.65" shape-rendering="crispEdges"/><rect fill="#1e1e1e" x="0" y="221.1" width="1464" height="24.65" shape-rendering="crispEdges"/><rect fill="#1e1e1e" x="0" y="245.5" width="1464" height="24.65" shape-rendering="crispEdges"/><rect fill="#1e1e1e" x="0" y="269.9" width="1464" height="24.65" shape-rendering="crispEdges"/><rect fill="#1e1e1e" x="0" y="294.3" width="1464" height="24.65" shape-rendering="crispEdges"/><rect fill="#1e1e1e" x="0" y="318.7" width="1464" height="24.65" shape-rendering="crispEdges"/><rect fill="#1e1e1e" x="0" y="343.1" width="1464" height="24.65" shape-rendering="crispEdges"/><rect fill="#1e1e1e" x="0" y="367.5" width="1464" height="24.65" shape-rendering="crispEdges"/><rect fill="#1e1e1e" x="0" y="391.9" width="1464" height="24.65" shape-rendering="crispEdges"/><rect fill="#1e1e1e" x="0" y="416.3" width="1464" height="24.65" shape-rendering="crispEdges"/><rect fill="#1e1e1e" x="0" y="440.7" width="1464" height="24.65" shape-rendering="crispEdges"/><rect fill="#1e1e1e" x="0" y="465.1" width="1464" height="24.65" shape-rendering="crispEdges"/><rect fill="#1e1e1e" x="0" y="489.5" width="1464" height="24.65" shape-rendering="crispEdges"/><rect fill="#1e1e1e" x="0" y="513.9" width="1464" height="24.65" shape-rendering="crispEdges"/><rect fill="#1e1e1e" x="0" y="538.3" width="1464" height="24.65" shape-rendering="crispEdges"/><rect fill="#1e1e1e" x="0" y="562.7" width="1464" height="24.65" shape-rendering="crispEdges"/><rect fill="#1e1e1e" x="0" y="587.1" width="1464" height="24.65" shape-rendering="crispEdges"/><rect fill="#1e1e1e" x="0" y="611.5" width="1464" height="24.65" shape-rendering="crispEdges"/><rect fill="#1e1e1e" x="0" y="635.9" width="1464" height="24.65" shape-rendering="crispEdges"/><rect fill="#1e1e1e" x="0" y="660.3" width="1464" height="24.65" shape-rendering="crispEdges"/><rect fill="#1e1e1e" x="0" y="684.7" width="1464" height="24.65" shape-rendering="crispEdges"/><rect fill="#1e1e1e" x="0" y="709.1" width="1464" height="24.65" shape-rendering="crispEdges"/><rect fill="#1e1e1e" x="0" y="733.5" width="1464" height="24.65" shape-rendering="crispEdges"/><rect fill="#1e1e1e" x="0" y="757.9" width="1464" height="24.65" shape-rendering="crispEdges"/><rect fill="#1e1e1e" x="0" y="782.3" width="1464" height="24.65" shape-rendering="crispEdges"/><rect fill="#1e1e1e" x="0" y="806.7" width="1464" height="24.65" shape-rendering="crispEdges"/><rect fill="#1e1e1e" x="0" y="831.1" width="1464" height="24.65" shape-rendering="crispEdges"/><rect fill="#1e1e1e" x="0" y="855.5" width="1464" height="24.65" shape-rendering="crispEdges"/><rect fill="#1e1e1e" x="0" y="879.9" width="1464" height="24.65" shape-rendering="crispEdges"/><rect fill="#1e1e1e" x="0" y="904.3" width="1464" height="24.65" shape-rendering="crispEdges"/><rect fill="#1e1e1e" x="0" y="928.7" width="1464" height="24.65" shape-rendering="crispEdges"/><rect fill="#2d2d2d" x="0" y="953.1" width="36.6" height="24.65" shape-rendering="crispEdges"/><rect fill="#2d2d2d" x="36.6" y="953.1" width="61" height="24.65" shape-rendering="crispEdges"/><rect fill="#2d2d2d" x="97.6" y="953.1" width="36.6" height="24.65" shape-rendering="crispEdges"/><rect fill="#2d2d2d" x="134.2" y="953.1" width="134.2" height="24.65" shape-rendering="crispEdges"/><rect fill="#2d2d2d" x="268.4" y="953.1" width="36.6" height="24.65" shape-rendering="crispEdges"/><rect fill="#2d2d2d" x="305" y="953.1" width="109.8" height="24.65" shape-rendering="crispEdges"/><rect fill="#2d2d2d" x="414.8" y="953.1" width="36.6" height="24.65" shape-rendering="crispEdges"/><rect fill="#2d2d2d" x="451.4" y="953.1" width="97.6" height="24.65" shape-rendering="crispEdges"/><rect fill="#2d2d2d" x="549" y="953.1" width="36.6" height="24.65" shape-rendering="crispEdges"/><rect fill="#2d2d2d" x="585.6" y="953.1" width="61" height="24.65" shape-rendering="crispEdges"/><rect fill="#2d2d2d" x="646.6" y="953.1" width="36.6" height="24.65" shape-rendering="crispEdges"/><rect fill="#2d2d2d" x="683.2" y="953.1" width="85.4" height="24.65" shape-rendering="crispEdges"/><rect fill="#2d2d2d" x="768.6" y="953.1" width="36.6" height="24.65" shape-rendering="crispEdges"/><rect fill="#2d2d2d" x="805.2" y="953.1" width="85.4" height="24.65" shape-rendering="crispEdges"/><rect fill="#2d2d2d" x="890.6" y="953.1" width="427" height="24.65" shape-rendering="crispEdges"/><rect fill="#2d2d2d" x="1317.6" y="953.1" width="12.2" height="24.65" shape-rendering="crispEdges"/><rect fill="#2d2d2d" x="1329.8" y="953.1" width="24.4" height="24.65" shape-rendering="crispEdges"/><rect fill="#2d2d2d" x="1354.2" y="953.1" width="97.6" height="24.65" shape-rendering="crispEdges"/><rect fill="#2d2d2d" x="1451.8" y="953.1" width="12.2" height="24.65" shape-rendering="crispEdges"/>
    <g class="terminal-607156690-matrix">
    <text class="terminal-607156690-r2" x="12.2" y="20" textLength="12.2" clip-path="url(#terminal-607156690-line-0)">⭘</text><text class="terminal-607156690-r2" x="671" y="20" textLength="97.6" clip-path="url(#terminal-607156690-line-0)">ProxyTUI</text><text class="terminal-607156690-r3" x="1354.2" y="20" textLength="97.6" clip-path="url(#terminal-607156690-line-0)">17:20:53</text><text class="terminal-607156690-r1" x="1464" y="20" textLength="12.2" clip-path="url(#terminal-607156690-line-0)">
</text><text class="terminal-607156690-r4" x="12.2" y="44.4" textLength="97.6" clip-path="url(#terminal-607156690-line-1)">Overview</text><text class="terminal-607156690-r4" x="134.2" y="44.4" textLength="85.4" clip-path="url(#terminal-607156690-line-1)">Metrics</text><text class="terminal-607156690-r4" x="244" y="44.4" textLength="48.8" clip-path="url(#terminal-607156690-line-1)">Logs</text><text class="terminal-607156690-r5" x="317.2" y="44.4" textLength="73.2" clip-path="url(#terminal-607156690-line-1)">Models</text><text class="terminal-607156690-r4" x="414.8" y="44.4" textLength="73.2" clip-path="url(#terminal-607156690-line-1)">Config</text><text class="terminal-607156690-r1" x="1464" y="44.4" textLength="12.2" clip-path="url(#terminal-607156690-line-1)">
</text><text class="terminal-607156690-r6" x="0" y="68.8" textLength="122" clip-path="url(#terminal-607156690-line-2)">━━━━━━━━━━</text><text class="terminal-607156690-r7" x="122" y="68.8" textLength="73.2" clip-path="url(#terminal-607156690-line-2)">╺━━━━━</text><text class="terminal-607156690-r7" x="195.2" y="68.8" textLength="12.2" clip-path="url(#terminal-607156690-line-2)">╸</text><text class="terminal-607156690-r6" x="207.4" y="68.8" textLength="1256.6" clip-path="url(#terminal-607156690-line-2)">━━━━━━━━━━━━━━━━━━━━━━━━━━━━━━━━━━━━━━━━━━━━━━━━━━━━━━━━━━━━━━━━━━━━━━━━━━━━━━━━━━━━━━━━━━━━━━━━━━━━━━━</text><text class="terminal-607156690-r1" x="1464" y="68.8" textLength="12.2" clip-path="url(#terminal-607156690-line-2)">
</text><text class="terminal-607156690-r8" x="0" y="93.2" textLength="85.4" clip-path="url(#terminal-607156690-line-3)">&#160;Model&#160;</text><text class="terminal-607156690-r8" x="85.4" y="93.2" textLength="231.8" clip-path="url(#terminal-607156690-line-3)">&#160;Requests&#160;&#160;&#160;&#160;&#160;&#160;&#160;&#160;&#160;&#160;</text><text class="terminal-607156690-r8" x="317.2" y="93.2" textLength="97.6" clip-path="url(#terminal-607156690-line-3)">&#160;Tokens&#160;</text><text class="terminal-607156690-r8" x="414.8" y="93.2" textLength="73.2" clip-path="url(#terminal-607156690-line-3)">&#160;429s&#160;</text><text class="terminal-607156690-r8" x="488" y="93.2" textLength="158.6" clip-path="url(#terminal-607156690-line-3)">&#160;Avg&#160;Latency&#160;</text><text class="terminal-607156690-r1" x="1464" y="93.2" textLength="12.2" clip-path="url(#terminal-607156690-line-3)">
</text><text class="terminal-607156690-r2" x="0" y="117.6" textLength="85.4" clip-path="url(#terminal-607156690-line-4)">&#160;--&#160;&#160;&#160;&#160;</text><text class="terminal-607156690-r2" x="85.4" y="117.6" textLength="231.8" clip-path="url(#terminal-607156690-line-4)">&#160;No&#160;model&#160;data&#160;yet&#160;</text><text class="terminal-607156690-r1" x="1464" y="117.6" textLength="12.2" clip-path="url(#terminal-607156690-line-4)">
</text><text class="terminal-607156690-r1" x="1464" y="142" textLength="12.2" clip-path="url(#terminal-607156690-line-5)">
</text><text class="terminal-607156690-r1" x="1464" y="166.4" textLength="12.2" clip-path="url(#terminal-607156690-line-6)">
</text><text class="terminal-607156690-r1" x="1464" y="190.8" textLength="12.2" clip-path="url(#terminal-607156690-line-7)">
</text><text class="terminal-607156690-r1" x="1464" y="215.2" textLength="12.2" clip-path="url(#terminal-607156690-line-8)">
</text><text class="terminal-607156690-r1" x="1464" y="239.6" textLength="12.2" clip-path="url(#terminal-607156690-line-9)">
</text><text class="terminal-607156690-r1" x="1464" y="264" textLength="12.2" clip-path="url(#terminal-607156690-line-10)">
</text><text class="terminal-607156690-r1" x="1464" y="288.4" textLength="12.2" clip-path="url(#terminal-607156690-line-11)">
</text><text class="terminal-607156690-r1" x="1464" y="312.8" textLength="12.2" clip-path="url(#terminal-607156690-line-12)">
</text><text class="terminal-607156690-r1" x="1464" y="337.2" textLength="12.2" clip-path="url(#terminal-607156690-line-13)">
</text><text class="terminal-607156690-r1" x="1464" y="361.6" textLength="12.2" clip-path="url(#terminal-607156690-line-14)">
</text><text class="terminal-607156690-r1" x="1464" y="386" textLength="12.2" clip-path="url(#terminal-607156690-line-15)">
</text><text class="terminal-607156690-r1" x="1464" y="410.4" textLength="12.2" clip-path="url(#terminal-607156690-line-16)">
</text><text class="terminal-607156690-r1" x="1464" y="434.8" textLength="12.2" clip-path="url(#terminal-607156690-line-17)">
</text><text class="terminal-607156690-r1" x="1464" y="459.2" textLength="12.2" clip-path="url(#terminal-607156690-line-18)">
</text><text class="terminal-607156690-r1" x="1464" y="483.6" textLength="12.2" clip-path="url(#terminal-607156690-line-19)">
</text><text class="terminal-607156690-r1" x="1464" y="508" textLength="12.2" clip-path="url(#terminal-607156690-line-20)">
</text><text class="terminal-607156690-r1" x="1464" y="532.4" textLength="12.2" clip-path="url(#terminal-607156690-line-21)">
</text><text class="terminal-607156690-r1" x="1464" y="556.8" textLength="12.2" clip-path="url(#terminal-607156690-line-22)">
</text><text class="terminal-607156690-r1" x="1464" y="581.2" textLength="12.2" clip-path="url(#terminal-607156690-line-23)">
</text><text class="terminal-607156690-r1" x="1464" y="605.6" textLength="12.2" clip-path="url(#terminal-607156690-line-24)">
</text><text class="terminal-607156690-r1" x="1464" y="630" textLength="12.2" clip-path="url(#terminal-607156690-line-25)">
</text><text class="terminal-607156690-r1" x="1464" y="654.4" textLength="12.2" clip-path="url(#terminal-607156690-line-26)">
</text><text class="terminal-607156690-r1" x="1464" y="678.8" textLength="12.2" clip-path="url(#terminal-607156690-line-27)">
</text><text class="terminal-607156690-r1" x="1464" y="703.2" textLength="12.2" clip-path="url(#terminal-607156690-line-28)">
</text><text class="terminal-607156690-r1" x="1464" y="727.6" textLength="12.2" clip-path="url(#terminal-607156690-line-29)">
</text><text class="terminal-607156690-r1" x="1464" y="752" textLength="12.2" clip-path="url(#terminal-607156690-line-30)">
</text><text class="terminal-607156690-r1" x="1464" y="776.4" textLength="12.2" clip-path="url(#terminal-607156690-line-31)">
</text><text class="terminal-607156690-r1" x="1464" y="800.8" textLength="12.2" clip-path="url(#terminal-607156690-line-32)">
</text><text class="terminal-607156690-r1" x="1464" y="825.2" textLength="12.2" clip-path="url(#terminal-607156690-line-33)">
</text><text class="terminal-607156690-r1" x="1464" y="849.6" textLength="12.2" clip-path="url(#terminal-607156690-line-34)">
</text><text class="terminal-607156690-r1" x="1464" y="874" textLength="12.2" clip-path="url(#terminal-607156690-line-35)">
</text><text class="terminal-607156690-r1" x="1464" y="898.4" textLength="12.2" clip-path="url(#terminal-607156690-line-36)">
</text><text class="terminal-607156690-r1" x="1464" y="922.8" textLength="12.2" clip-path="url(#terminal-607156690-line-37)">
</text><text class="terminal-607156690-r1" x="1464" y="947.2" textLength="12.2" clip-path="url(#terminal-607156690-line-38)">
</text><text class="terminal-607156690-r9" x="0" y="971.6" textLength="36.6" clip-path="url(#terminal-607156690-line-39)">&#160;q&#160;</text><text class="terminal-607156690-r2" x="36.6" y="971.6" textLength="61" clip-path="url(#terminal-607156690-line-39)">Quit&#160;</text><text class="terminal-607156690-r9" x="97.6" y="971.6" textLength="36.6" clip-path="url(#terminal-607156690-line-39)">&#160;r&#160;</text><text class="terminal-607156690-r2" x="134.2" y="971.6" textLength="134.2" clip-path="url(#terminal-607156690-line-39)">Clear&#160;Logs&#160;</text><text class="terminal-607156690-r9" x="268.4" y="971.6" textLength="36.6" clip-path="url(#terminal-607156690-line-39)">&#160;1&#160;</text><text class="terminal-607156690-r2" x="305" y="971.6" textLength="109.8" clip-path="url(#terminal-607156690-line-39)">Overview&#160;</text><text class="terminal-607156690-r9" x="414.8" y="971.6" textLength="36.6" clip-path="url(#terminal-607156690-line-39)">&#160;2&#160;</text><text class="terminal-607156690-r2" x="451.4" y="971.6" textLength="97.6" clip-path="url(#terminal-607156690-line-39)">Metrics&#160;</text><text class="terminal-607156690-r9" x="549" y="971.6" textLength="36.6" clip-path="url(#terminal-607156690-line-39)">&#160;3&#160;</text><text class="terminal-607156690-r2" x="585.6" y="971.6" textLength="61" clip-path="url(#terminal-607156690-line-39)">Logs&#160;</text><text class="terminal-607156690-r9" x="646.6" y="971.6" textLength="36.6" clip-path="url(#terminal-607156690-line-39)">&#160;4&#160;</text><text class="terminal-607156690-r2" x="683.2" y="971.6" textLength="85.4" clip-path="url(#terminal-607156690-line-39)">Models&#160;</text><text class="terminal-607156690-r9" x="768.6" y="971.6" textLength="36.6" clip-path="url(#terminal-607156690-line-39)">&#160;5&#160;</text><text class="terminal-607156690-r2" x="805.2" y="971.6" textLength="85.4" clip-path="url(#terminal-607156690-line-39)">Config&#160;</text><text class="terminal-607156690-r10" x="1317.6" y="971.6" textLength="12.2" clip-path="url(#terminal-607156690-line-39)">▏</text><text class="terminal-607156690-r9" x="1329.8" y="971.6" textLength="24.4" clip-path="url(#terminal-607156690-line-39)">^p</text><text class="terminal-607156690-r2" x="1354.2" y="971.6" textLength="97.6" clip-path="url(#terminal-607156690-line-39)">&#160;palette</text>
    </g>
    </g>
</svg>
